<svg width="19" height="21" viewBox="0 0 19 21" fill="none" xmlns="http://www.w3.org/2000/svg">
<path d="M9.09798 21C4.07331 21 0 17.0413 0 12.1579C0 7.27453 4.07331 3.31579 9.09798 3.31579C14.1227 3.31579 18.196 7.27453 18.196 12.1579C18.1903 17.039 14.1203 20.9945 9.09798 21ZM9.09798 5.52632C5.32947 5.52632 2.2745 8.49537 2.2745 12.1579C2.2745 15.8204 5.32947 18.7895 9.09798 18.7895C12.8665 18.7895 15.9215 15.8204 15.9215 12.1579C15.9171 8.49714 12.8647 5.53058 9.09798 5.52632ZM10.2352 13.2632H7.96073V7.73684H10.2352V13.2632ZM17.3919 6.30774L15.1174 4.09721L16.7255 2.53437L19 4.74489L17.3931 6.30663L17.3919 6.30774ZM12.5097 2.21053H5.68624V0H12.5097V2.21053Z" fill="#ABABAB"/>
</svg>
