<svg width="125" height="125" viewBox="0 0 125 125" fill="none" xmlns="http://www.w3.org/2000/svg">
<g filter="url(#filter0_d)">
<circle cx="62.5" cy="35.5" r="33.5" fill="#A500D0"/>
</g>
<path d="M55 43H53C53 39.6863 55.6863 37 59 37C62.3137 37 65 39.6863 65 43H63C63 40.7909 61.2091 39 59 39C56.7909 39 55 40.7909 55 43ZM66.994 39.41L64.288 36.71L65.7 35.292L66.992 36.584L71.292 32.292L72.704 33.708L66.992 39.408L66.994 39.41ZM59 36C56.7909 36 55 34.2091 55 32C55 29.7909 56.7909 28 59 28C61.2091 28 63 29.7909 63 32C62.9972 34.208 61.208 35.9972 59 36ZM59 30C57.9074 30.0011 57.0179 30.8788 57.0022 31.9713C56.9866 33.0638 57.8506 33.9667 58.9427 33.9991C60.0348 34.0315 60.9508 33.1815 61 32.09V32.49V32C61 30.8954 60.1046 30 59 30Z" fill="white"/>
<defs>
<filter id="filter0_d" x="0" y="0" width="125" height="125" filterUnits="userSpaceOnUse" color-interpolation-filters="sRGB">
<feFlood flood-opacity="0" result="BackgroundImageFix"/>
<feColorMatrix in="SourceAlpha" type="matrix" values="0 0 0 0 0 0 0 0 0 0 0 0 0 0 0 0 0 0 127 0" result="hardAlpha"/>
<feMorphology radius="8" operator="erode" in="SourceAlpha" result="effect1_dropShadow"/>
<feOffset dy="27"/>
<feGaussianBlur stdDeviation="18.5"/>
<feComposite in2="hardAlpha" operator="out"/>
<feColorMatrix type="matrix" values="0 0 0 0 0.835294 0 0 0 0 0.168627 0 0 0 0 1 0 0 0 0.25 0"/>
<feBlend mode="normal" in2="BackgroundImageFix" result="effect1_dropShadow"/>
<feBlend mode="normal" in="SourceGraphic" in2="effect1_dropShadow" result="shape"/>
</filter>
</defs>
</svg>
