<svg width="231" height="252" viewBox="0 0 231 252" fill="none" xmlns="http://www.w3.org/2000/svg">
<path d="M115.616 189.938C118.929 185.085 123.551 178.038 128.767 169.326C130.28 166.808 131.834 164.127 133.43 161.355C132.448 160.523 124.697 153.983 122.508 149.501C120.463 145.411 118.97 139.611 120.75 135.105C121.469 133.068 122.874 131.436 124.658 130.57C126.441 129.703 128.456 129.672 130.26 130.484L130.975 130.877C136.334 134.343 137.315 146.867 136.17 152.967C136.17 153.36 134.779 157.865 134.125 160.153C135.086 158.466 136.027 156.779 136.988 155.023C138.399 152.482 139.81 149.755 141.078 147.098L143.124 142.869C143.839 141.436 144.371 139.981 145.026 138.525C145.925 136.376 146.744 134.088 147.582 131.824C145.21 130.368 138.317 125.955 135.884 122.373C133.45 118.792 131.057 113.131 132.202 108.509C132.654 106.376 133.835 104.532 135.487 103.38C137.139 102.229 139.127 101.863 141.017 102.363L141.753 102.617C147.521 105.136 150.159 117.359 149.934 123.575C149.934 123.783 149.729 125.077 149.504 126.625C150.261 124.314 151.018 122.142 151.713 119.831C153.758 113.315 155.538 106.591 157.399 99.8441L158.585 95.6617C156.54 94.4371 149.075 89.7233 146.519 86.0031C143.962 82.2829 141.692 76.7603 142.837 72.139C143.289 70.006 144.47 68.162 146.122 67.0102C147.774 65.8584 149.762 65.4925 151.652 65.9925L152.388 66.2467C158.155 68.7653 160.794 80.9889 160.569 87.2046C160.569 87.4357 160.344 88.9838 160.078 90.74C161.141 87.0891 162.123 83.4844 163.412 79.926C165.409 73.8199 167.773 67.8752 170.488 62.1336C169.772 61.7177 160.876 56.4031 158.033 52.2439C155.517 48.5468 153.206 43.0012 154.352 38.3798C154.57 37.3235 154.972 36.3266 155.533 35.4464C156.094 34.5661 156.804 33.82 157.621 33.2508C158.438 32.6817 159.347 32.3009 160.295 32.1303C161.244 31.9596 162.212 32.0025 163.146 32.2565L163.739 32.4876C169.506 34.9831 172.144 47.2066 171.919 53.4224C171.919 53.8614 171.06 59.4995 170.692 61.5098L170.795 61.3018C173.574 55.7324 176.784 50.4513 180.386 45.5199C183.574 41.1068 186.988 36.9095 190.612 32.9497C193.946 29.2295 197.198 26.0177 200.102 23.268C201.697 21.7891 203.169 20.4489 204.54 19.2242H204.417C204.417 19.2242 207.832 11.7145 208.098 11.2755C211.227 6.14576 219.94 -1.68752 225.85 0.322778C226.759 0.657875 227.601 1.19213 228.328 1.89494C229.054 2.59775 229.651 3.45541 230.084 4.41887C230.517 5.38234 230.778 6.43275 230.851 7.51011C230.925 8.58747 230.81 9.67066 230.513 10.6978C230.432 10.9995 230.33 11.2931 230.206 11.5759C228.55 16.1973 223.764 18.8776 219.776 20.0329C215.788 21.1883 207.055 19.7325 204.908 19.3166C203.497 20.6337 202.004 22.0433 200.368 23.6377C197.525 26.4798 194.334 29.7379 191.082 33.5043C190.224 34.521 189.324 35.6532 188.424 36.7161C190.264 35.2604 192.8 33.2963 193.066 33.1577C197.913 30.1769 208.732 27.6582 213.272 32.4876C214.619 34.059 215.359 36.1687 215.332 38.3555C215.306 40.5422 214.514 42.6279 213.129 44.1565C212.941 44.3612 212.743 44.5541 212.536 44.7342C209.203 47.9229 203.844 47.8537 199.815 46.8139C195.786 45.774 188.424 39.72 186.869 38.4029C184.811 40.8258 182.885 43.3877 181.102 46.0744C177.627 51.0369 174.554 56.3419 171.919 61.9257C171.756 62.2492 171.633 62.5958 171.49 62.9193C172.288 62.0413 176.95 57.4892 177.319 57.2119C181.859 53.6997 192.494 49.9332 197.361 54.208C198.84 55.5963 199.777 57.5862 199.968 59.748C200.159 61.9098 199.59 64.0698 198.384 65.7614C198.217 65.988 198.04 66.204 197.852 66.4084C194.825 69.9669 189.487 70.5677 185.397 70.0362C180.693 69.4354 171.735 63.3121 171.408 63.1042C168.917 68.7351 166.745 74.5388 164.905 80.4805C163.534 84.8708 162.307 89.3767 161.101 93.9287C162.164 92.7734 166.5 88.5448 166.847 88.2906C171.408 84.7784 182.022 81.012 186.91 85.3098C187.692 86.0536 188.328 86.9726 188.779 88.0085C189.23 89.0444 189.485 90.1748 189.529 91.3281C189.574 92.4814 189.405 93.6325 189.036 94.7086C188.666 95.7846 188.102 96.7623 187.381 97.5796C184.374 101.138 179.016 101.762 174.926 101.23C170.324 100.63 161.735 94.7837 161.019 94.2984C160.467 96.3549 159.914 98.4114 159.383 100.491C157.665 107.261 155.947 114.055 154.086 120.687C153.431 122.997 152.715 125.308 152.04 127.48C153.656 125.839 156.683 122.859 156.969 122.674C161.53 119.161 172.144 115.418 177.032 119.693C178.505 121.088 179.434 123.081 179.617 125.242C179.801 127.404 179.225 129.56 178.014 131.246L177.503 131.87C174.496 135.429 169.138 136.053 165.048 135.521C160.957 134.99 153.513 130.414 151.468 129.051C150.282 132.794 149.014 136.468 147.623 140.004C146.989 141.529 146.437 143.123 145.762 144.625C145.087 146.127 144.453 147.49 143.717 148.9C142.306 151.788 140.976 154.446 139.626 157.08L137.581 160.962C139.013 159.021 141.324 155.971 141.672 155.716C145.762 151.465 155.701 145.942 161.101 149.339C162.757 150.47 163.948 152.298 164.412 154.421C164.876 156.544 164.575 158.789 163.575 160.661L163.146 161.378C160.651 165.421 155.456 166.946 151.325 167.108C146.805 167.316 137.806 163.203 136.702 162.695C135.004 165.837 133.327 168.887 131.732 171.706C126.619 180.626 122.079 187.881 118.848 192.849C115.616 197.817 113.632 200.659 113.632 200.659C113.262 201.159 112.732 201.474 112.158 201.534C111.583 201.595 111.011 201.397 110.565 200.983C110.335 200.79 110.143 200.544 110.002 200.262C109.861 199.98 109.775 199.667 109.748 199.345C109.721 199.023 109.754 198.697 109.845 198.39C109.937 198.083 110.084 197.801 110.278 197.563C110.278 197.563 112.324 194.813 115.616 189.938Z" fill="#D0D4D7" fill-opacity="0.08"/>
<path d="M186.829 37.109C186.829 37.109 178.873 28.7905 177.033 23.7301C175.458 19.4322 174.517 13.4475 176.746 9.21896C177.672 7.29835 179.234 5.87144 181.09 5.25184C182.947 4.63224 184.944 4.87066 186.645 5.91469L187.32 6.37686C192.29 10.513 191.983 23.0831 190.245 28.9984C190.081 29.5068 186.911 37.109 186.829 37.109Z" fill="#D0D4D7" fill-opacity="0.08"/>
<g opacity="0.2">
<path opacity="0.2" d="M115.616 189.938C118.929 185.085 123.551 178.038 128.767 169.326C130.28 166.808 131.834 164.127 133.43 161.355C132.448 160.523 124.697 153.983 122.508 149.501C120.463 145.411 118.97 139.611 120.75 135.105C121.469 133.068 122.874 131.436 124.658 130.57C126.441 129.703 128.456 129.672 130.26 130.484L130.975 130.877C136.334 134.343 137.315 146.867 136.17 152.967C136.17 153.36 134.779 157.865 134.125 160.153C135.086 158.466 136.027 156.779 136.988 155.023C138.399 152.482 139.81 149.755 141.078 147.098L143.124 142.869C143.839 141.436 144.371 139.981 145.026 138.525C145.925 136.376 146.744 134.088 147.582 131.824C145.21 130.368 138.317 125.955 135.884 122.373C133.45 118.792 131.057 113.131 132.202 108.509C132.654 106.376 133.835 104.532 135.487 103.38C137.139 102.229 139.127 101.863 141.017 102.363L141.753 102.617C147.521 105.136 150.159 117.359 149.934 123.575C149.934 123.783 149.729 125.077 149.504 126.625C150.261 124.314 151.018 122.142 151.713 119.831C153.758 113.315 155.538 106.591 157.399 99.8441L158.585 95.6617C156.54 94.4371 149.075 89.7233 146.519 86.0031C143.962 82.2829 141.692 76.7603 142.837 72.139C143.289 70.006 144.47 68.162 146.122 67.0102C147.774 65.8584 149.762 65.4925 151.652 65.9925L152.388 66.2467C158.155 68.7653 160.794 80.9889 160.569 87.2046C160.569 87.4357 160.344 88.9838 160.078 90.74C161.141 87.0891 162.123 83.4844 163.412 79.926C165.409 73.8199 167.773 67.8752 170.488 62.1336C169.772 61.7177 160.876 56.4031 158.033 52.2439C155.517 48.5468 153.206 43.0012 154.352 38.3798C154.57 37.3235 154.972 36.3266 155.533 35.4464C156.094 34.5661 156.804 33.82 157.621 33.2508C158.438 32.6817 159.347 32.3009 160.295 32.1303C161.244 31.9596 162.212 32.0025 163.146 32.2565L163.739 32.4876C169.506 34.9831 172.144 47.2066 171.919 53.4224C171.919 53.8614 171.06 59.4995 170.692 61.5098L170.795 61.3018C173.574 55.7324 176.784 50.4513 180.386 45.5199C183.574 41.1068 186.988 36.9095 190.612 32.9497C193.946 29.2295 197.198 26.0177 200.102 23.268C201.697 21.7891 203.169 20.4489 204.54 19.2242H204.417C204.417 19.2242 207.832 11.7145 208.098 11.2755C211.227 6.14576 219.94 -1.68752 225.85 0.322778C226.759 0.657875 227.601 1.19213 228.328 1.89494C229.054 2.59775 229.651 3.45541 230.084 4.41887C230.517 5.38234 230.778 6.43275 230.851 7.51011C230.925 8.58747 230.81 9.67066 230.513 10.6978C230.432 10.9995 230.33 11.2931 230.206 11.5759C228.55 16.1973 223.764 18.8776 219.776 20.0329C215.788 21.1883 207.055 19.7325 204.908 19.3166C203.497 20.6337 202.004 22.0433 200.368 23.6377C197.525 26.4798 194.334 29.7379 191.082 33.5043C190.224 34.521 189.324 35.6532 188.424 36.7161C190.264 35.2604 192.8 33.2963 193.066 33.1577C197.913 30.1769 208.732 27.6582 213.272 32.4876C214.619 34.059 215.359 36.1687 215.332 38.3555C215.306 40.5422 214.514 42.6279 213.129 44.1565C212.941 44.3612 212.743 44.5541 212.536 44.7342C209.203 47.9229 203.844 47.8537 199.815 46.8139C195.786 45.774 188.424 39.72 186.869 38.4029C184.811 40.8258 182.885 43.3877 181.102 46.0744C177.627 51.0369 174.554 56.3419 171.919 61.9257C171.756 62.2492 171.633 62.5958 171.49 62.9193C172.288 62.0413 176.95 57.4892 177.319 57.2119C181.859 53.6997 192.494 49.9332 197.361 54.208C198.84 55.5963 199.777 57.5862 199.968 59.748C200.159 61.9098 199.59 64.0698 198.384 65.7614C198.217 65.988 198.04 66.204 197.852 66.4084C194.825 69.9669 189.487 70.5677 185.397 70.0362C180.693 69.4354 171.735 63.3121 171.408 63.1042C168.917 68.7351 166.745 74.5388 164.905 80.4805C163.534 84.8708 162.307 89.3767 161.101 93.9287C162.164 92.7734 166.5 88.5448 166.847 88.2906C171.408 84.7784 182.022 81.012 186.91 85.3098C187.692 86.0536 188.328 86.9726 188.779 88.0085C189.23 89.0444 189.485 90.1748 189.529 91.3281C189.574 92.4814 189.405 93.6325 189.036 94.7086C188.666 95.7846 188.102 96.7623 187.381 97.5796C184.374 101.138 179.016 101.762 174.926 101.23C170.324 100.63 161.735 94.7837 161.019 94.2984C160.467 96.3549 159.914 98.4114 159.383 100.491C157.665 107.261 155.947 114.055 154.086 120.687C153.431 122.997 152.715 125.308 152.04 127.48C153.656 125.839 156.683 122.859 156.969 122.674C161.53 119.161 172.144 115.418 177.032 119.693C178.505 121.088 179.434 123.081 179.617 125.242C179.801 127.404 179.225 129.56 178.014 131.246L177.503 131.87C174.496 135.429 169.138 136.053 165.048 135.521C160.957 134.99 153.513 130.414 151.468 129.051C150.282 132.794 149.014 136.468 147.623 140.004C146.989 141.529 146.437 143.123 145.762 144.625C145.087 146.127 144.453 147.49 143.717 148.9C142.306 151.788 140.976 154.446 139.626 157.08L137.581 160.962C139.013 159.021 141.324 155.971 141.672 155.716C145.762 151.465 155.701 145.942 161.101 149.339C162.757 150.47 163.948 152.298 164.412 154.421C164.876 156.544 164.575 158.789 163.575 160.661L163.146 161.378C160.651 165.421 155.456 166.946 151.325 167.108C146.805 167.316 137.806 163.203 136.702 162.695C135.004 165.837 133.327 168.887 131.732 171.706C126.619 180.626 122.079 187.881 118.848 192.849C115.616 197.817 113.632 200.659 113.632 200.659C113.262 201.159 112.732 201.474 112.158 201.534C111.583 201.595 111.011 201.397 110.565 200.983C110.335 200.79 110.143 200.544 110.002 200.262C109.861 199.98 109.775 199.667 109.748 199.345C109.721 199.023 109.754 198.697 109.845 198.39C109.937 198.083 110.084 197.801 110.278 197.563C110.278 197.563 112.324 194.813 115.616 189.938Z" fill="black" fill-opacity="0.08"/>
<path opacity="0.2" d="M186.829 37.109C186.829 37.109 178.873 28.7905 177.033 23.7301C175.458 19.4322 174.517 13.4475 176.746 9.21896C177.672 7.29835 179.234 5.87144 181.09 5.25184C182.947 4.63224 184.944 4.87066 186.645 5.91469L187.32 6.37686C192.29 10.513 191.983 23.0831 190.245 28.9984C190.081 29.5068 186.911 37.109 186.829 37.109Z" fill="black" fill-opacity="0.08"/>
</g>
<path d="M89.9909 240.796C89.9909 240.796 98.4374 186.264 104.471 182.174C110.504 178.084 111.71 194.444 117.744 198.533C123.777 202.623 134.637 152.181 143.083 152.181C151.53 152.181 147.91 172.631 152.736 178.084C157.563 183.537 182.902 148.045 188.936 152.181C194.969 156.317 196.175 168.541 196.175 168.541C196.175 168.541 240.821 156.271 234.788 167.178C228.755 178.084 185.316 178.084 181.614 186.264C177.912 194.444 216.607 188.99 204.54 199.897C192.474 210.803 152.654 203.987 147.828 210.803C143.001 217.62 170.754 220.346 161.101 225.8C151.448 231.253 115.249 228.526 126.108 231.207C136.968 233.887 161.101 242.113 144.208 246.203C127.315 250.293 86.371 257.156 89.9909 240.796Z" fill="#D0D4D7" fill-opacity="0.08"/>
<path d="M188.281 174.225C188.281 174.225 169.302 178.5 136.437 201.352C103.571 224.205 90.9114 245.648 90.9114 245.648" fill="#D0D4D7" fill-opacity="0.08"/>
<path d="M188.281 174.225C188.281 174.225 169.302 178.5 136.437 201.352C103.571 224.205 90.9114 245.648 90.9114 245.648" stroke="white" stroke-width="0.729" stroke-miterlimit="10"/>
<path d="M140.179 179.932L133.859 202.785L166.745 197.078" fill="#D0D4D7" fill-opacity="0.08"/>
<path d="M140.179 179.932L133.859 202.785L166.745 197.078" stroke="white" stroke-width="0.729" stroke-miterlimit="10"/>
<path d="M137.029 218.498L117.437 217.781L123.756 201.352" fill="#D0D4D7" fill-opacity="0.08"/>
<path d="M137.029 218.498L117.437 217.781L123.756 201.352" stroke="white" stroke-width="0.729" stroke-miterlimit="10"/>
<path d="M124.39 234.927L98.4576 237.076L102.896 212.074" fill="#D0D4D7" fill-opacity="0.08"/>
<path d="M124.39 234.927L98.4576 237.076L102.896 212.074" stroke="white" stroke-width="0.729" stroke-miterlimit="10"/>
<path d="M171.164 179.932L178.117 167.801" stroke="white" stroke-width="0.729" stroke-miterlimit="10"/>
<path d="M91.4016 243.661C91.4016 243.661 86.0842 204.148 82.3007 201.191C78.5172 198.233 77.7604 210.087 73.9564 213.045C70.1525 216.002 63.3421 179.447 58.0451 179.447C52.7482 179.447 55.0183 194.282 51.9097 198.233C48.801 202.184 32.9511 176.489 29.1675 179.447C25.384 182.405 24.6068 191.301 24.6068 191.301C24.6068 191.301 -3.43224 182.405 0.351295 190.33C4.13483 198.256 31.4377 198.233 33.7078 204.195C35.9779 210.156 11.7224 206.182 19.3917 214.084C27.061 221.987 51.9915 217.042 55.0183 221.987C58.0451 226.932 40.7022 228.919 46.6741 232.847C52.6459 236.775 75.4699 234.834 68.6595 236.798C61.8491 238.763 46.6741 244.701 57.2884 247.659C67.9028 250.616 93.6717 255.515 91.4016 243.661Z" fill="#D0D4D7" fill-opacity="0.08"/>
<path d="M29.6795 195.414C29.6795 195.414 41.6028 198.533 62.2384 215.101C82.874 231.669 90.8706 247.173 90.8706 247.173" fill="#D0D4D7" fill-opacity="0.08"/>
<path d="M29.6795 195.414C29.6795 195.414 41.6028 198.533 62.2384 215.101C82.874 231.669 90.8706 247.173 90.8706 247.173" stroke="white" stroke-width="0.729" stroke-miterlimit="10"/>
<path d="M59.8659 199.573L63.8335 216.118L43.1774 211.982" fill="#D0D4D7" fill-opacity="0.08"/>
<path d="M59.8659 199.573L63.8335 216.118L43.1774 211.982" stroke="white" stroke-width="0.729" stroke-miterlimit="10"/>
<path d="M61.8493 227.509L74.1611 227.001L70.1935 215.101" fill="#D0D4D7" fill-opacity="0.08"/>
<path d="M61.8493 227.509L74.1611 227.001L70.1935 215.101" stroke="white" stroke-width="0.729" stroke-miterlimit="10"/>
<path d="M69.785 239.41L86.0645 240.981L83.2831 222.865" fill="#D0D4D7" fill-opacity="0.08"/>
<path d="M69.785 239.41L86.0645 240.981L83.2831 222.865" stroke="white" stroke-width="0.729" stroke-miterlimit="10"/>
<path d="M40.396 199.573L36.0398 190.77" stroke="white" stroke-width="0.729" stroke-miterlimit="10"/>
<path d="M86.6776 244.401C86.6776 244.401 45.12 188.459 46.3471 178.754C47.5742 169.049 62.872 181.966 71.2367 179.355C79.6013 176.744 43.6271 121.865 50.2738 113.223C56.9206 104.581 72.1365 126.024 80.7466 125.816C89.3567 125.608 78.047 68.9271 86.3913 66.2929C94.7355 63.6587 99.2758 89.238 99.2758 89.238C99.2758 89.238 130.873 16.7518 135.741 32.4876C140.608 48.2233 106.475 92.5654 110.77 103.264C115.064 113.962 140.752 69.8052 140.874 91.7105C140.997 113.616 103.611 148.276 105.82 159.113C108.029 169.95 132.305 143.932 129.524 158.535C126.742 173.139 95.799 207.822 106.761 199.065C117.723 190.307 143.962 172.723 134.248 193.566C124.533 214.408 98.2941 262.285 86.6776 244.401Z" fill="#D0D4D7" fill-opacity="0.08"/>
<path d="M86.6776 244.401C86.6776 244.401 45.12 188.459 46.3471 178.754C47.5742 169.049 62.872 181.966 71.2367 179.355C79.6013 176.744 43.6271 121.865 50.2738 113.223C56.9206 104.581 72.1365 126.024 80.7466 125.816C89.3567 125.608 78.047 68.9271 86.3913 66.2929C94.7355 63.6587 99.2758 89.238 99.2758 89.238C99.2758 89.238 130.873 16.7518 135.741 32.4876C140.608 48.2233 106.475 92.5654 110.77 103.264C115.064 113.962 140.752 69.8052 140.874 91.7105C140.997 113.616 103.611 148.276 105.82 159.113C108.029 169.95 132.305 143.932 129.524 158.535C126.742 173.139 95.799 207.822 106.761 199.065C117.723 190.307 143.962 172.723 134.248 193.566C124.533 214.408 98.2941 262.285 86.6776 244.401Z" fill="#D0D4D7" fill-opacity="0.08"/>
<path opacity="0.1" d="M86.6776 244.401C86.6776 244.401 45.12 188.459 46.3471 178.754C47.5742 169.049 62.872 181.966 71.2367 179.355C79.6013 176.744 43.6271 121.865 50.2738 113.223C56.9206 104.581 72.1365 126.024 80.7466 125.816C89.3567 125.608 78.047 68.9271 86.3913 66.2929C94.7355 63.6587 99.2758 89.238 99.2758 89.238C99.2758 89.238 130.873 16.7518 135.741 32.4876C140.608 48.2233 106.475 92.5654 110.77 103.264C115.064 113.962 140.752 69.8052 140.874 91.7105C140.997 113.616 103.611 148.276 105.82 159.113C108.029 169.95 132.305 143.932 129.524 158.535C126.742 173.139 95.799 207.822 106.761 199.065C117.723 190.307 143.962 172.723 134.248 193.566C124.533 214.408 98.2941 262.285 86.6776 244.401Z" fill="black" fill-opacity="0.08"/>
<path d="M105.289 86.1185C105.289 86.1185 94.1425 109.225 88.416 162.718C82.6896 216.21 91.6474 247.682 91.6474 247.682" stroke="white" stroke-width="0.729" stroke-miterlimit="10"/>
<path d="M72.5044 140.235L87.6999 166.531L108.54 127.942" stroke="white" stroke-width="0.729" stroke-miterlimit="10"/>
<path d="M104.041 176.929L87.9865 196.361L78.4561 175.635" stroke="white" stroke-width="0.729" stroke-miterlimit="10"/>
<path d="M108.582 204.102L90.0729 232.501L71.4824 206.274" stroke="white" stroke-width="0.729" stroke-miterlimit="10"/>
<path d="M96.9033 108.555L91.6677 90.9017" stroke="white" stroke-width="0.729" stroke-miterlimit="10"/>
</svg>
