<svg width="36" height="41" viewBox="0 0 36 41" fill="none" xmlns="http://www.w3.org/2000/svg">
<g filter="url(#filter0_d)">
<path d="M18 23.0037C16.7369 21.9263 15.5662 20.7452 14.5 19.4727C12.9 17.5617 11 14.7157 11 12.0037C10.9986 9.17126 12.7042 6.6171 15.3211 5.53311C17.9379 4.44912 20.9501 5.04895 22.952 7.05271C24.2685 8.36332 25.0059 10.1461 25 12.0037C25 14.7157 23.1 17.5617 21.5 19.4727C20.4338 20.7452 19.2631 21.9263 18 23.0037ZM18 7.00371C15.2399 7.00702 13.0033 9.24366 13 12.0037C13 13.1697 13.527 15.1887 16.035 18.1897C16.6531 18.9278 17.309 19.6334 18 20.3037C18.691 19.6342 19.3472 18.9296 19.966 18.1927C22.473 15.1877 23 13.1687 23 12.0037C22.9967 9.24366 20.7601 7.00702 18 7.00371ZM18 15.0037C16.3431 15.0037 15 13.6606 15 12.0037C15 10.3469 16.3431 9.00371 18 9.00371C19.6569 9.00371 21 10.3469 21 12.0037C21 12.7994 20.6839 13.5624 20.1213 14.125C19.5587 14.6876 18.7957 15.0037 18 15.0037Z" fill="#D52BFF"/>
</g>
<defs>
<filter id="filter0_d" x="0" y="0" width="36.0001" height="40.0037" filterUnits="userSpaceOnUse" color-interpolation-filters="sRGB">
<feFlood flood-opacity="0" result="BackgroundImageFix"/>
<feColorMatrix in="SourceAlpha" type="matrix" values="0 0 0 0 0 0 0 0 0 0 0 0 0 0 0 0 0 0 127 0" result="hardAlpha"/>
<feOffset dy="6"/>
<feGaussianBlur stdDeviation="5.5"/>
<feComposite in2="hardAlpha" operator="out"/>
<feColorMatrix type="matrix" values="0 0 0 0 0.835294 0 0 0 0 0.168627 0 0 0 0 1 0 0 0 0.15 0"/>
<feBlend mode="normal" in2="BackgroundImageFix" result="effect1_dropShadow"/>
<feBlend mode="normal" in="SourceGraphic" in2="effect1_dropShadow" result="shape"/>
</filter>
</defs>
</svg>
